PathFileType	4	(X/Y/Z)	C:/Users/beibeiliu/ov580/test_trc/User3\sequence.34_training_dense_left.trc
DataRate	CameraRate	NumFrames	NumMarkers	Units	OrigDataRate	OrigDataStartFrame	OrigNumFrames
120	120	21	19	mm	120	1	250
Frame#	Time	ThumbCMC			ThumbMCP			ThumbIP			ThumbTip			IndexMCP			IndexPIP			IndexTip			MiddleMCP			MiddlePIP			MiddleTip			RingMCP			RingPIP			RingTip			PinkyMCP			PinkyPIP			PinkyTip			BackHand1			BackHand2			BackHand3	
		X0	Y0	Z0	X1	Y1	Z1	X2	Y2	Z2	X3	Y3	Z3	X4	Y4	Z4	X5	Y5	Z5	X6	Y6	Z6	X7	Y7	Z7	X8	Y8	Z8	X9	Y9	Z9	X10	Y10	Z10	X11	Y11	Z11	X12	Y12	Z12	X13	Y13	Z13	X14	Y14	Z14	X15	Y15	Z15	X16	Y16	Z16	X17	Y17	Z17	X18	Y18	Z18	
0	0	-207.729	-62.2618	17.1687	-217.535	-51.4768	-8.71149	-224.297	-41.1641	-37.4913	-218.277	-29.784	-62.2878	-169.98	-71.5372	-54.7669	-167.4	-62.1226	-81.4077	-159.127	-44.1884	-107.329	-146.999	-77.7868	-55.3444	-136.332	-68.6634	-82.36	-123.584	-46.4756	-105.286	-129.051	-78.1042	-43.4375	-116.832	-73.113	-63.3763	-102.396	-56.0957	-82.9735	-110.062	-73.6056	-20.5326	-98.3418	-67.2	-35.1404	-87.1347	-55.3455	-55.5018	-147.359	-93.4243	3.36742	-155.949	-96.4487	37.2374	-181.582	-89.2083	9.65114	
1	0.00833333	-205.364	-61.0074	14.8432	-217.927	-51.1616	-10.6207	-219.149	-40.8193	-36.7577	-218.52	-28.5288	-61.5238	-169.161	-70.4592	-56.8701	-164.377	-60.1212	-85.4375	-156.683	-42.3015	-107.49	-146.986	-76.7236	-58.783	-138.335	-69.0334	-81.5154	-123.568	-45.9898	-106.221	-125.843	-78.4738	-41.0932	-117.703	-71.2747	-64.8137	-101.277	-52.116	-87.8824	-113.974	-72.5472	-18.7867	-95.4596	-65.2417	-40.2326	-84.1548	-56.1522	-54.8022	-146.067	-91.9191	6.67405	-155.895	-96.3699	33.2451	-181.579	-87.302	7.0884	
2	0.0166667	-205.614	-59.8612	16.2139	-217.039	-50.2697	-7.91241	-222.275	-38.6185	-40.6796	-219.527	-28.2633	-57.1134	-173.085	-67.3417	-62.1097	-165.178	-59.3315	-83.878	-162.1	-42.6371	-106.209	-146.326	-77.1848	-55.8503	-138.026	-67.5616	-83.0457	-127.563	-46.3344	-107.323	-131.557	-76.7477	-41.9585	-115.787	-68.1152	-68.9398	-101.15	-51.454	-87.1977	-112.377	-73.1275	-20.5456	-96.3563	-65.0326	-38.962	-86.0627	-53.2934	-55.3755	-145.637	-92.1769	5.1725	-156.173	-94.2473	31.9348	-181.027	-86.8563	9.39679	
3	0.025	-208.287	-59.5464	10.5572	-216.618	-49.6494	-10.9614	-222.378	-38.1193	-38.4162	-222.019	-26.6594	-56.3375	-171.415	-67.5766	-61.3008	-168.888	-57.4013	-88.8756	-158.163	-44.1887	-104.803	-149.744	-76.0077	-56.0683	-137.901	-66.3941	-85.6001	-125.751	-46.3246	-107.955	-131.39	-75.9493	-45.4511	-116.047	-68.4177	-68.3369	-105.351	-54.7386	-85.9437	-117.494	-71.4779	-21.7939	-100.859	-66.3165	-41.772	-85.57	-55.6594	-57.1701	-146.826	-90.131	1.00944	-152.791	-95.0075	30.9068	-182.181	-86.2464	5.25694	
4	0.0333333	-205.265	-58.8667	15.0212	-218.327	-48.5808	-12.8321	-226.406	-36.5047	-37.5214	-224.074	-24.5046	-58.9118	-176.324	-67.6584	-59.1988	-170.535	-60.155	-84.882	-164.243	-44.0676	-107.147	-151.296	-75.8031	-62.6591	-140.822	-64.5174	-88.6286	-129.889	-47.9092	-109.161	-128.103	-75.5059	-43.4433	-117.59	-68.1733	-70.7862	-102.792	-52.2999	-88.8179	-112.222	-71.8293	-22.5191	-103.149	-65.9949	-41.5507	-86.0042	-55.3338	-58.0338	-147.359	-91.4813	1.03649	-158.45	-94.0755	27.3306	-181.94	-84.8187	5.14172	
5	0.0416667	-205.357	-58.775	10.7064	-218.316	-48.7071	-11.779	-223.375	-36.4643	-40.3557	-224.06	-23.2195	-59.7276	-177.94	-67.1725	-58.4856	-167.229	-58.7698	-87.7954	-164.35	-43.8721	-107.225	-148.151	-75.5795	-60.6977	-141.798	-66.7577	-86.8295	-127.151	-48.1982	-109.327	-127.964	-75.7169	-43.8132	-115.229	-68.6068	-69.5628	-102.751	-55.1418	-86.7541	-114.91	-72.6392	-23.7304	-103.736	-66.8865	-40.3202	-86.5725	-54.0036	-56.7554	-151.808	-90.5566	2.926	-156.881	-93.8719	29.4985	-185.717	-83.9618	5.17439	
6	0.05	-207.968	-57.9533	10.6527	-221.041	-47.2206	-12.9252	-223.564	-34.3069	-35.5153	-222.579	-23.0823	-57.3413	-173.106	-66.499	-62.521	-172.506	-58.0951	-85.3467	-162.937	-43.2736	-107.191	-147.468	-74.6257	-61.2871	-143.296	-66.5677	-85.3044	-128.96	-47.047	-112.705	-133.37	-74.0729	-43.923	-117.933	-68.4616	-68.1207	-104.97	-52.5463	-92.2178	-112.741	-71.3859	-23.3881	-99.1021	-64.0832	-44.295	-86.0881	-53.2847	-59.1521	-152.365	-87.06	2.78531	-155.758	-93.2343	31.0944	-183.231	-85.1978	6.86389	
7	0.0583333	-208.688	-57.7284	15.2318	-220.994	-46.4501	-9.80338	-226.861	-34.4776	-40.2788	-226.628	-22.1252	-58.726	-175.242	-66.2646	-61.92	-172.354	-55.4051	-89.8217	-163.177	-43.4199	-107.949	-149.558	-73.3644	-61.8462	-142.289	-65.4121	-85.8769	-131.534	-43.6906	-115.56	-133.405	-73.6139	-45.6467	-115.983	-67.7334	-67.9482	-104.573	-53.6152	-88.5699	-112.408	-71.6039	-26.2063	-101.86	-65.0019	-42.0994	-85.936	-51.5362	-61.8985	-147.502	-88.0642	3.83336	-155.381	-92.3725	28.8997	-186.037	-84.62	4.85004	
8	0.0666667	-207.834	-56.0058	12.2809	-219.202	-45.5739	-12.577	-223.461	-34.457	-37.7724	-223.417	-22.4131	-61.6478	-176.69	-65.6217	-59.8973	-172.093	-55.607	-90.5197	-167.788	-38.9067	-112.429	-151.875	-73.5595	-59.0374	-139.26	-64.6171	-88.4667	-130.856	-45.6063	-113.145	-131.539	-73.7674	-46.6843	-117.438	-68.0182	-68.2479	-107.262	-51.7485	-92.195	-114.531	-70.6694	-22.0297	-102.81	-65.1579	-41.2395	-86.061	-53.6997	-60.1868	-149.897	-86.2742	1.30828	-155.919	-91.2994	31.8034	-184.467	-82.0973	6.37837	
9	0.075	-206.945	-55.6177	13.9457	-223.773	-44.102	-12.8198	-229.772	-33.2071	-37.184	-224.333	-21.2892	-57.387	-178.324	-64.0781	-61.5307	-172.402	-57.6185	-86.0088	-166.751	-42.8602	-110.618	-153.733	-72.8982	-61.9072	-145.403	-64.9568	-88.449	-133.652	-46.2596	-112.818	-135.346	-73.1105	-49.0552	-118.615	-69.1903	-67.0991	-107.716	-53.0671	-90.6372	-119.809	-68.621	-23.6014	-101.585	-63.1525	-43.1031	-89.1864	-53.1724	-60.1603	-148.486	-86.6767	2.33913	-156.165	-91.1088	27.4271	-186.576	-81.7219	6.50847	
10	0.0833333	-210.024	-55.016	11.1791	-223.003	-43.6103	-12.0601	-228.509	-31.3626	-38.8242	-228.194	-19.4634	-60.6762	-176.597	-63.0233	-62.1496	-175.531	-55.1948	-87.4596	-166.297	-41.0175	-112.145	-153.126	-72.4796	-63.1104	-145.992	-64.8087	-87.1433	-131.227	-47.6945	-111.996	-131.266	-72.753	-44.8347	-120.309	-68.8634	-67.7205	-108.779	-53.8346	-92.9526	-120.627	-67.7407	-23.9774	-103.505	-63.6934	-43.2813	-90.3891	-53.0982	-59.8759	-149.981	-85.639	2.42316	-157.573	-88.8366	26.2394	-185.65	-81.937	5.46128	
11	0.0916667	-207.857	-52.9698	14.5341	-226.905	-41.539	-10.714	-231.463	-29.5288	-37.6319	-226.722	-18.2119	-57.3052	-179.062	-61.8887	-62.8777	-175.769	-53.5034	-89.694	-168.439	-42.1086	-109.325	-155.179	-72.0782	-60.1465	-144.449	-65.7476	-88.5239	-132.467	-47.3182	-116.227	-134.368	-72.1496	-43.5297	-124.564	-68.4425	-68.3217	-108.987	-57.3339	-89.7231	-120.648	-68.3208	-29.1596	-107.393	-64.0018	-42.2565	-88.4543	-54.4137	-60.8194	-151.147	-86.3392	0.15935	-157.373	-89.9882	28.4779	-188.617	-78.0679	3.25117	
12	0.1	-207.987	-52.6725	9.84366	-221.481	-39.4928	-11.3337	-231.735	-25.8431	-37.71	-230.392	-14.6956	-58.4142	-180.721	-61.0107	-64.3604	-178.988	-52.7082	-89.7684	-170.958	-40.997	-109.281	-157.588	-71.4262	-62.7829	-145.816	-65.5146	-90.0991	-134.359	-51.9645	-114.075	-133.692	-73.4197	-44.7513	-125.277	-68.567	-71.8469	-109.99	-57.855	-91.703	-120.011	-68.7693	-23.6143	-106.925	-65.6017	-40.8864	-90.3305	-57.9052	-62.8041	-155.706	-82.7838	-2.41824	-161.989	-88.276	29.5983	-188.471	-77.4329	5.68658	
13	0.108333	-210.404	-48.0437	13.1568	-225.038	-34.8344	-13.312	-230.152	-22.0429	-39.8385	-227.378	-9.20358	-59.7804	-178.757	-60.9005	-60.5004	-178.023	-53.6785	-87.4506	-169.296	-37.3955	-112.551	-157.245	-72.3062	-64.2583	-149.3	-65.6634	-90.5425	-138.273	-53.2256	-115.161	-136.893	-73.8262	-47.9595	-126.033	-70.9456	-68.0515	-112.177	-60.5034	-90.9966	-122.607	-71.291	-29.0821	-104.913	-67.5394	-45.5201	-92.6631	-61.8097	-63.1747	-156.556	-82.6018	-2.2979	-163.946	-89.2473	26.5583	-191.337	-78.0706	6.79537	
14	0.116667	-211.839	-44.76	12.22	-223.361	-29.9474	-9.54171	-228.137	-15.1144	-36.6057	-222.629	-3.91499	-56.9727	-179.478	-58.7585	-63.5005	-176.882	-50.8345	-88.6086	-169.103	-34.9818	-111.33	-161.272	-70.7184	-61.4927	-152.745	-65.591	-89.6246	-135.978	-52.298	-119.175	-139.633	-74.5637	-47.5549	-126.925	-72.6742	-70.5179	-114.652	-63.0521	-91.1473	-120.831	-75.027	-27.3915	-108.679	-73.4614	-41.8747	-91.1843	-68.1084	-64.5456	-156.776	-85.4561	1.10913	-166.323	-86.2127	25.9567	-191.072	-75.1892	4.45567	
15	0.125	-209.369	-38.7282	12.0208	-218.223	-23.0389	-12.0747	-222.462	-7.93838	-40.4348	-218.124	5.16932	-55.172	-182.433	-54.775	-62.3576	-180.168	-45.8859	-89.7939	-165.479	-32.4981	-113.765	-160.716	-71.1003	-60.389	-154.02	-64.1874	-93.0083	-139.988	-53.677	-117.51	-141.167	-76.0122	-46.0843	-130.81	-73.7231	-70.1399	-113.868	-66.1341	-92.1267	-122.923	-77.8444	-26.4839	-111.813	-76.2877	-44.725	-96.3107	-72.3028	-65.408	-160.271	-82.7967	-2.69012	-168.981	-86.0095	26.2041	-194.383	-71.9282	0.982492	
16	0.133333	-208.036	-32.3485	13.3149	-214.993	-14.3137	-14.7762	-214.617	-0.0995668	-37.3826	-208.557	11.8239	-59.5073	-181.853	-50.8063	-60.4819	-174.368	-42.2468	-91.1994	-164.443	-29.9696	-111.58	-161.508	-68.6875	-59.3871	-152.936	-65.0912	-90.6551	-139.34	-53.6765	-116.923	-145.4	-73.6982	-49.2866	-130.549	-75.9564	-72.5111	-113.751	-68.1744	-96.5636	-126.071	-78.61	-28.9119	-113.784	-79.3126	-44.6829	-98.2754	-75.7567	-63.3925	-164.298	-82.0202	0.781465	-173.267	-84.6247	23.3233	-194.129	-67.4552	0.604656	
17	0.141667	-204.756	-23.045	10.9474	-206.695	-5.12598	-9.68881	-204.524	10.5658	-35.3922	-198.053	22.8062	-56.7378	-183.36	-42.5487	-61.1029	-172.26	-36.918	-91.5514	-160.656	-25.4595	-110.885	-164.704	-65.0037	-65.3978	-157.278	-60.4818	-91.3918	-137.096	-51.7495	-120.831	-146.783	-75.4662	-50.1527	-135.674	-77.2332	-71.7073	-120.816	-68.043	-97.2263	-132.44	-79.2869	-28.7905	-115.44	-83.2157	-48.0142	-102.394	-81.3637	-62.9585	-169.508	-78.6487	-4.14472	-175.471	-82.1332	22.2338	-194.897	-60.986	1.85319	
18	0.15	-199.319	-14.5526	9.76643	-196.935	2.32825	-8.69799	-193.465	21.1671	-37.7943	-183.098	28.1407	-54.5777	-180.324	-35.9753	-60.9154	-172.62	-29.8548	-90.7034	-155.256	-22.6421	-111.295	-169.269	-59.4648	-63.9571	-156.57	-58.608	-95.4268	-141.737	-51.7722	-117.966	-152.69	-73.3911	-50.134	-139.191	-77.7537	-75.6095	-122.248	-71.8511	-100.516	-136.52	-81.1801	-30.7968	-122.907	-84.6234	-51.8283	-110.091	-85.7667	-66.8334	-174.834	-73.7579	-4.31574	-182.499	-79.0194	22.951	-194.663	-52.5532	2.43542	
19	0.158333	-191.33	-9.57333	12.0525	-190.371	12.5204	-8.43134	-183.443	27.274	-32.8819	-173.779	38.2514	-52.02	-177.516	-32.1681	-65.5136	-170.483	-25.152	-88.3558	-151.954	-18.1238	-110.741	-170.514	-55.5099	-67.9692	-162.022	-50.5743	-94.7373	-143.026	-48.5523	-119.623	-155.046	-73.2516	-54.9138	-146.332	-74.2407	-75.6151	-127.57	-72.1941	-101.498	-141.89	-83.0335	-30.9382	-129.281	-88.7637	-49.9489	-113.35	-91.2495	-68.147	-179.146	-71.6013	-8.48084	-185.447	-71.3389	23.5017	-198.613	-41.3741	1.80831	
20	0.166667	-184.752	-5.06446	16.2892	-180.172	18.0895	-8.65982	-172.651	34.0989	-32.6682	-161.51	44.6291	-50.7215	-176.022	-24.463	-59.8234	-165.621	-19.7672	-90.5673	-148.342	-13.523	-112.023	-170.883	-50.5793	-64.4722	-163.91	-44.8902	-93.6421	-143.884	-43.8967	-121.763	-159.669	-68.1808	-52.8022	-149.139	-73.3399	-80.7818	-134.006	-70.2418	-101.304	-147.488	-81.3336	-33.4149	-135.62	-88.3071	-52.1721	-122.956	-90.8902	-71.6199	-180.312	-65.1219	-7.37668	-188.21	-66.0314	18.9587	-195.343	-37.6469	-0.699217	
